# xmcd CD database file
#
# Track frame offsets:
#	150
#	22904
#	50645
#	63466
#	83522
#	112280
#	124384
#	137858
#	153868
#	171973
#	192203
#	208729
#	227821
#	246771
#
# Disc length: 3674 seconds
#
# Revision: 0
# Processed by: cddbd v1.5.2PL0 Copyright (c) Steve Scherf et al.
# Submitted via: CDex 1.51
#
DISCID=c60e580e
DTITLE=Blues and Roots Session - live in Vienna - Pinu, Gruen, Ster, Otahal, Tubbs, Shumy,..
DYEAR=2005
DGENRE=Blues
TTITLE0=this train is bound for glory
TTITLE1=tuesday night at the tunnel
TTITLE2=lady b. goode
TTITLE3=see see rider
TTITLE4=sittin´on top of the world
TTITLE5=rouge&noir boogie woogie
TTITLE6=twenty holes
TTITLE7=stoland, the mailman
TTITLE8=sweet georgia brown
TTITLE9=nice&round&warm
TTITLE10=the preacher
TTITLE11=in the pines
TTITLE12=too good friends
TTITLE13=listen to who we got
EXTD=YEAR: 2005
EXTT0=
EXTT1=
EXTT2=
EXTT3=
EXTT4=
EXTT5=
EXTT6=
EXTT7=
EXTT8=
EXTT9=
EXTT10=
EXTT11=
EXTT12=
EXTT13=
PLAYORDER=
